<?xml version="1.0" encoding="UTF-8"?>
<svg id="Layer_1" data-name="Layer 1" xmlns="http://www.w3.org/2000/svg" viewBox="0 0 156.49 57.48">
  <defs>
    <style>
      .cls-1 {
        fill: #303030;
      }

      .cls-2 {
        fill: #6e0f00;
      }
    </style>
  </defs>
  <g>
    <path class="cls-2" d="M34.66,32.03c2.67,1.13,5.66,1.67,8.49,1.73,.19,0,.38,0,.57,0,2.62,0,5.24-.38,7.87-1.15,2.62-.77,5.01-1.87,7.17-3.31,2.16-1.44,3.89-3.18,5.2-5.22,1.31-2.04,1.97-4.33,1.97-6.88,0-2.26-.63-4.42-1.88-6.48-1.26-2.06-3.17-3.79-5.73-5.18-2.68-1.54-5.86-2.65-9.54-3.35-3.69-.69-7.52-1.04-11.51-1.04-4.59,0-9.05,.64-13.39,1.91-4.34,1.27-7.88,3.06-10.61,5.36-1.42,1.2-2.69,2.8-3.81,4.79-1.12,1.99-1.68,3.97-1.68,5.94,0,.43,.03,.86,.08,1.3,.05,.43,.16,.86,.33,1.3,.49,1.34,1.43,2.38,2.83,3.1,1.39,.72,2.94,1.08,4.63,1.08,.71,0,1.43-.07,2.17-.22s1.46-.31,2.17-.5h.16c.16,0,.25,.07,.25,.22,0,.19-.14,.34-.41,.43-1.53,.43-3.17,.65-4.92,.65s-3.43-.28-5.04-.83c-1.61-.55-2.92-1.42-3.93-2.59-1.01-1.18-1.52-2.72-1.52-4.64,0-1.49,.23-2.88,.7-4.18,.46-1.3,1.11-2.5,1.93-3.6,1.8-2.4,4.35-4.38,7.66-5.94,3.3-1.56,6.96-2.74,10.98-3.53,4.01-.79,7.99-1.19,11.92-1.19s7.95,.24,11.72,.72c3.77,.48,7.05,1.27,9.83,2.38,4.04,1.49,6.95,3.42,8.73,5.8,1.77,2.38,2.66,4.86,2.66,7.45,0,2.98-.79,5.63-2.38,7.96-1.58,2.33-3.69,4.28-6.31,5.87s-5.48,2.78-8.56,3.6c-3.09,.82-6.1,1.22-9.05,1.22-1.48,0-2.92-.11-4.34-.32-1.07-.16-2.2-.39-3.28-.66-.57-.15-1.14-.31-1.71-.48-.22-.07-.63-.3-.86-.27-.32,.03-.24,.02-.43,.35-1.26,2.07-2.3,4.29-3.51,6.4-1.28,2.23-2.74,4.38-4.38,6.44-1.47,1.82-3.14,3.54-5,5.15-1.86,1.61-3.91,2.92-6.14,3.92-1.26,.53-2.55,.95-3.89,1.26-1.32,.31-2.68,.47-4.03,.48-1.26,0-2.64-.09-3.86-.46-1.48-.45-2.7-1.49-2.91-3.09-.18-1.39,.58-2.56,1.59-3.43,.07-.06,.14-.12,.21-.18,.54-.45,1.07-.92,1.67-1.29,.4-.25,.68-.11,.34,.29-.72,.85-1.64,1.69-2.1,2.74-.23,.52-.37,1.54,.06,2.48,.34,.75,1.07,1.13,1.83,1.34,.9,.24,1.82,.38,2.75,.41,1.45,.04,2.94-.08,4.32-.54,.74-.23,1.45-.53,2.13-.9,1.8-.98,3.43-2.23,4.87-3.74,1.45-1.51,2.74-3.04,3.89-4.57,1.64-2.21,3.25-4.73,4.83-7.56,.78-1.4,1.56-2.79,2.35-4.19,.47-.83,.88-1.7,1.33-2.54,.32-.6,.79-2.14,1.63-1.56,.91,.62,1.9,1.15,2.93,1.59ZM57.57,7.93"/>
    <path class="cls-2" d="M68.94,35.63c-.39-1.12-.97-2.22-2.18-2.62-.89-.3-1.86-.27-2.8-.17-6.16,.65-11.91,4.42-14.97,9.81-1.54,2.71-2.39,6.11-1.04,8.92,1.42,2.93,4.83,4.36,8.06,4.77,5.5,.71,11.35-.93,15.37-4.76s5.94-9.86,4.44-15.19c-1.2-4.25-4.4-8.03-4.23-12.45,.11-2.66,1.54-5.22,3.7-6.78s4.99-2.13,7.61-1.62c.82,.16,1.65,.44,2.27,1.01s.97,1.48,.69,2.27-1.32,1.27-2.03,.83c.41-1.33-.65-2.79-1.99-3.18s-2.79,.05-3.99,.76c-1.92,1.15-3.45,3.12-3.62,5.36-.18,2.47,1.25,4.72,2.51,6.84,2.12,3.58,3.95,7.56,3.8,11.72-.18,4.92-3.22,9.45-7.3,12.21s-9.06,3.91-13.98,4.1c-2.39,.09-4.82-.03-7.1-.77s-4.39-2.14-5.65-4.18c-1.65-2.68-1.59-6.18-.37-9.07s3.49-5.25,6.02-7.11c3.6-2.66,7.97-4.48,12.44-4.38,1.37,.03,2.8,.26,3.91,1.07,1.33,.96,2.12,3.14,.87,4.49"/>
    <path class="cls-2" d="M103.72,39.25h.06c.39,.17,.82,.33,1.29,.46,1.72,.48,3.45,.72,5.17,.72,1.88,0,3.76-.28,5.64-.83,1.88-.55,3.59-1.34,5.14-2.38,1.55-1.03,2.79-2.28,3.73-3.74,.94-1.46,1.41-3.11,1.41-4.93,0-1.62-.45-3.17-1.35-4.65-.9-1.48-2.27-2.72-4.11-3.72-1.92-1.1-4.2-1.9-6.85-2.4-2.64-.5-5.4-.75-8.26-.75-3.29,0-6.49,.46-9.61,1.37-3.12,.91-5.65,2.19-7.61,3.85-1.02,.86-1.93,2.01-2.73,3.43-.8,1.43-1.2,2.85-1.2,4.26,0,.31,.02,.62,.06,.93,.04,.31,.12,.62,.23,.93,.35,.96,1.03,1.7,2.03,2.22,1,.52,2.11,.77,3.32,.77,.51,0,1.03-.05,1.56-.15,.53-.1,1.05-.22,1.56-.36h.12c.12,0,.18,.05,.18,.15,0,.14-.1,.24-.29,.31-1.1,.31-2.27,.46-3.53,.46s-2.46-.2-3.61-.59c-1.16-.4-2.1-1.02-2.82-1.86-.73-.84-1.09-1.95-1.09-3.33,0-1.07,.17-2.07,.5-3,.33-.93,.79-1.79,1.38-2.58,1.29-1.72,3.12-3.14,5.49-4.26,2.37-1.12,5-1.96,7.88-2.53s5.73-.85,8.55-.85,5.7,.17,8.4,.52c2.7,.34,5.05,.91,7.05,1.7,2.9,1.07,4.99,2.45,6.26,4.16,1.27,1.7,1.91,3.49,1.91,5.35,0,2.14-.57,4.04-1.7,5.71-1.14,1.67-2.64,3.07-4.53,4.21-1.88,1.14-3.93,2-6.14,2.58-2.21,.59-4.38,.88-6.49,.88-1.06,0-2.1-.08-3.12-.23-1.02-.15-2.02-.35-3-.59-.2-.07-.38-.14-.56-.21-.18-.07-.36-.14-.56-.21-.04,0-.08,0-.12-.03-.04-.02-.08-.03-.12-.03-.86,1.65-1.75,3.28-2.67,4.88-.92,1.6-1.97,3.14-3.14,4.62-1.06,1.31-2.25,2.54-3.59,3.69-1.33,1.15-2.8,2.09-4.41,2.82-.9,.38-1.83,.68-2.79,.9-.96,.22-1.95,.34-2.97,.34-.39,0-1.01-.05-1.85-.16-1.1-.13-2.36-.41-3.05-1.37-.41-.58-.51-1.39,.02-1.94,.16-.17,.31-.26,.47-.26s.2,.09,.12,.26c-.88,1.96,2.75,2.52,3.94,2.62,.16,.01,.31,.02,.47,.02,1.57,0,3-.35,4.29-1.06,1.29-.71,2.46-1.6,3.5-2.69,1.04-1.08,1.97-2.18,2.79-3.28,1.18-1.58,2.33-3.39,3.47-5.42,1.14-2.03,1.23-3.18,3.53-6.28"/>
  </g>
  <g>
    <path class="cls-1" d="M103.67,56.04c-.76-.63-1.13-1.39-1.13-2.29h.87c0,.68,.29,1.26,.87,1.75,.58,.47,1.28,.71,2.1,.71,.94,0,1.71-.21,2.29-.64,.57-.44,.85-1.01,.85-1.72,0-.53-.3-.99-.9-1.37-.6-.36-1.4-.59-2.41-.68-1.07-.09-1.92-.39-2.55-.9-.65-.5-.97-1.12-.97-1.86,0-.83,.32-1.48,.97-1.94,.65-.46,1.55-.68,2.71-.68s2.01,.24,2.67,.73c.68,.49,1.02,1.14,1.02,1.96h-.9c-.11-.61-.41-1.09-.9-1.44-.49-.35-1.12-.52-1.89-.52-.85,0-1.53,.17-2.03,.52-.5,.35-.76,.8-.76,1.37,0,.54,.31,.99,.92,1.37,.6,.36,1.4,.59,2.41,.68,1.05,.09,1.9,.41,2.55,.94,.63,.54,.94,1.2,.94,2.01,0,.9-.37,1.61-1.11,2.15-.72,.54-1.7,.8-2.93,.8-1.07,0-1.98-.31-2.71-.94Z"/>
    <path class="cls-1" d="M113.25,56.44c-.36-.41-.54-.91-.54-1.51v-7.53h-1.44v-.73h1.44v-2.86h.94v2.86h1.37v.73h-1.37v7.53c0,.39,.1,.73,.31,1.02,.19,.28,.42,.42,.71,.42,.3,0,.54-.06,.73-.17v.68c-.35,.13-.61,.19-.8,.19-.52,0-.97-.21-1.35-.64Z"/>
    <path class="cls-1" d="M117.74,55.47c-.87-.94-1.3-2.2-1.3-3.78s.43-2.93,1.3-3.92c.85-.98,1.99-1.46,3.42-1.46s2.56,.49,3.42,1.46c.85,.99,1.27,2.3,1.27,3.92s-.42,2.83-1.27,3.78c-.87,.94-2.01,1.42-3.42,1.42s-2.57-.47-3.42-1.42Zm6.16-.57c.68-.8,1.02-1.87,1.02-3.21s-.34-2.49-1.02-3.3c-.69-.83-1.6-1.25-2.74-1.25s-2.06,.42-2.74,1.25c-.69,.82-1.04,1.92-1.04,3.3s.35,2.41,1.04,3.21c.68,.8,1.59,1.2,2.74,1.2s2.05-.4,2.74-1.2Z"/>
    <path class="cls-1" d="M128.24,56.72v-10.05h.94v1.7c.28-.6,.72-1.07,1.3-1.42,.58-.36,1.23-.54,1.94-.54,.99,0,1.83,.32,2.53,.97,.71,.66,1.06,1.45,1.06,2.36v6.99h-.94v-6.99c0-.69-.26-1.28-.78-1.77-.52-.49-1.14-.73-1.86-.73-.79,0-1.49,.27-2.1,.8-.61,.55-.99,1.24-1.13,2.05v6.63h-.94Z"/>
    <path class="cls-1" d="M139.48,55.61c-.82-.99-1.23-2.3-1.23-3.92s.41-2.93,1.23-3.92c.82-.98,1.9-1.46,3.26-1.46s2.44,.45,3.26,1.35c.82,.9,1.23,2.09,1.23,3.59v.45h-8.02c0,1.37,.32,2.46,.97,3.28,.65,.82,1.5,1.23,2.57,1.23,.8,0,1.53-.21,2.17-.64,.66-.44,1.12-1.01,1.37-1.72h.94c-.16,.93-.66,1.7-1.51,2.31-.85,.61-1.84,.92-2.97,.92-1.35,0-2.44-.49-3.26-1.46Zm6.8-4.81v-.35c-.08-.93-.46-1.71-1.13-2.36-.69-.63-1.5-.94-2.41-.94s-1.71,.32-2.38,.97c-.69,.66-1.08,1.47-1.16,2.43v.26h7.08Z"/>
    <path class="cls-1" d="M149.74,56.04c-.76-.63-1.13-1.39-1.13-2.29h.87c0,.68,.29,1.26,.87,1.75,.58,.47,1.28,.71,2.1,.71,.94,0,1.71-.21,2.29-.64,.57-.44,.85-1.01,.85-1.72,0-.53-.3-.99-.9-1.37-.6-.36-1.4-.59-2.41-.68-1.07-.09-1.92-.39-2.55-.9-.65-.5-.97-1.12-.97-1.86,0-.83,.32-1.48,.97-1.94,.65-.46,1.55-.68,2.71-.68s2.01,.24,2.67,.73c.68,.49,1.02,1.14,1.02,1.96h-.9c-.11-.61-.41-1.09-.9-1.44-.49-.35-1.12-.52-1.89-.52-.85,0-1.53,.17-2.03,.52-.5,.35-.76,.8-.76,1.37,0,.54,.31,.99,.92,1.37,.6,.36,1.4,.59,2.41,.68,1.05,.09,1.9,.41,2.55,.94,.63,.54,.94,1.2,.94,2.01,0,.9-.37,1.61-1.11,2.15-.72,.54-1.7,.8-2.93,.8-1.07,0-1.98-.31-2.71-.94Z"/>
  </g>
</svg>